<svg width="15" height="12" viewBox="0 0 15 12" fill="none" xmlns="http://www.w3.org/2000/svg">
<path d="M7.9101 9.12713C7.41427 9.62297 6.88927 10.0896 6.39344 10.5855C6.21843 10.7605 6.01427 10.848 5.78093 10.848C5.60593 10.848 5.51843 10.7605 5.4601 10.6146C5.08093 9.44796 4.70177 8.25213 4.3226 7.08547C4.29343 6.9688 4.2351 6.91047 4.11843 6.8813C3.21427 6.58963 2.3101 6.29797 1.4351 6.0063C1.28927 5.94797 1.1726 5.9188 1.02677 5.8313C0.851768 5.71463 0.822602 5.51047 0.968435 5.36463C1.11427 5.2188 1.28927 5.10213 1.49343 5.0438C2.60177 4.6063 3.68093 4.19797 4.78927 3.76047C7.58927 2.6813 10.3893 1.60213 13.1893 0.522965C13.7143 0.318798 14.1226 0.610465 14.0643 1.1938C14.0351 1.57297 13.9476 1.92297 13.8601 2.27297C13.2476 5.1313 12.6351 7.98963 12.0518 10.848C11.9059 11.5188 11.4393 11.6938 10.8851 11.2855C9.95177 10.5855 9.01843 9.91463 8.0851 9.21463C7.9976 9.18547 7.96844 9.1563 7.9101 9.12713ZM5.8101 10.0021H5.83927C5.83927 9.97297 5.83927 9.9438 5.86843 9.91463C5.92677 9.27297 5.9851 8.6313 6.04344 7.96047C6.04344 7.81463 6.10177 7.72713 6.21843 7.61047C7.09343 6.85213 7.93927 6.06463 8.7851 5.27713C9.7476 4.4313 10.6809 3.5563 11.6434 2.71047C11.6726 2.6813 11.7018 2.56463 11.7601 2.5063C11.6726 2.5063 11.5851 2.44797 11.4976 2.47713C11.3809 2.5063 11.2643 2.56463 11.1768 2.62297C9.07677 3.96463 6.97677 5.27713 4.87677 6.58963C4.7601 6.67713 4.73093 6.73547 4.78927 6.85213C4.9351 7.28963 5.08093 7.7563 5.22677 8.1938C5.40177 8.8063 5.60594 9.38963 5.8101 10.0021Z" fill="white"/>
</svg>
