<svg width="15" height="14" viewBox="0 0 15 14" fill="none" xmlns="http://www.w3.org/2000/svg">
<path d="M7.70988 13.6216C6.48699 13.6216 5.3906 13.3273 4.37855 12.7808L0.583374 14L1.80627 10.3423C1.17374 9.33333 0.836386 8.11411 0.836386 6.81081C0.836386 3.02703 3.9147 0 7.70988 0C11.5051 0 14.5834 3.02703 14.5834 6.81081C14.5834 10.5946 11.5051 13.6216 7.70988 13.6216ZM7.70988 1.09309C4.54723 1.09309 1.93277 3.65766 1.93277 6.81081C1.93277 8.07207 2.35446 9.20721 3.02916 10.1742L2.31229 12.3183L4.54723 11.6036C5.47494 12.1922 6.57132 12.5706 7.70988 12.5706C10.9147 12.5706 13.487 10.006 13.487 6.85285C13.487 3.6997 10.9147 1.09309 7.70988 1.09309ZM11.2099 8.36637C11.1677 8.28228 11.0412 8.24024 10.8725 8.15616C10.7039 8.07207 9.86048 7.65165 9.73398 7.60961C9.5653 7.56757 9.4388 7.56757 9.35446 7.73574C9.22795 7.9039 8.93277 8.28228 8.80626 8.40841C8.72193 8.53453 8.59542 8.53453 8.42675 8.45045C8.25807 8.36637 7.70988 8.1982 7.07735 7.60961C6.57133 7.14715 6.23398 6.64264 6.14964 6.47447C6.0653 6.30631 6.14964 6.22222 6.23398 6.13814C6.31831 6.05405 6.40265 5.92793 6.48699 5.84384C6.57133 5.75976 6.61349 5.67568 6.65566 5.54955C6.69783 5.42342 6.69783 5.33934 6.65566 5.25526C6.61349 5.17117 6.27614 4.33033 6.14964 4.03604C6.02313 3.6997 5.85446 3.74174 5.77012 3.74174C5.68578 3.74174 5.55928 3.74174 5.43277 3.74174C5.30626 3.74174 5.13759 3.78378 4.96892 3.95195C4.80024 4.07808 4.37855 4.4985 4.37855 5.2973C4.37855 6.13814 4.96892 6.8949 5.05325 7.02102C5.13759 7.14715 6.23398 8.87087 7.92072 9.54354C9.64964 10.2162 9.64964 10.006 9.94482 9.96396C10.24 9.92192 10.9569 9.54354 11.0834 9.16516C11.252 8.78679 11.252 8.45045 11.2099 8.36637Z" fill="white"/>
</svg>
