<svg width="160" height="164" viewBox="0 0 160 164" fill="none" xmlns="http://www.w3.org/2000/svg">
<path d="M4.65455 78.8362C4.43636 78.3998 4.29091 77.8907 4.36364 77.3089C4.36364 76.8725 4.50909 76.5089 4.65455 76.1453C4.8 75.7816 5.09091 75.418 5.45455 75.1271C5.23636 75.1271 4.8 75.1271 4 75.0544L0.363636 74.8362L0 73.1635L13.3818 73.9635C14.5455 74.0362 15.4909 74.3998 16.1455 74.9816C16.8 75.5635 17.0909 76.4362 17.0182 77.5998C16.9455 78.3271 16.8 78.9816 16.4364 79.5635C16.0727 80.0725 15.6364 80.5089 15.0545 80.7271C14.4727 80.9453 13.8909 81.0907 13.1636 81.018C12.4364 80.9453 11.7818 80.7271 11.2 80.3635L11.7818 78.9089C12.0727 79.0544 12.2909 79.1271 12.5091 79.1998C12.7273 79.2725 12.9455 79.2725 13.2364 79.3453C13.9636 79.418 14.5455 79.2725 14.9818 78.9089C15.4182 78.618 15.7091 78.1089 15.7091 77.5271C15.7818 76.8725 15.5636 76.4362 15.1273 76.0725C14.6909 75.7816 14.1091 75.5635 13.3091 75.4907L6.69091 75.0544C6.32727 75.2725 6.10909 75.4907 5.89091 75.8544C5.67273 76.1453 5.6 76.5089 5.6 76.8725C5.6 77.3089 5.74545 77.7453 6.03636 78.0362C6.32727 78.3271 6.76364 78.5453 7.34546 78.5453C7.63636 78.5453 7.92727 78.5453 8.14545 78.4725L8.36364 79.9998C7.92727 80.1453 7.49091 80.218 7.05455 80.218C6.54545 80.218 6.10909 80.0725 5.67273 79.7816C5.23636 79.6362 4.87273 79.2725 4.65455 78.8362Z" fill="#FFC700"/>
<path d="M11.8545 65.3091C11.4182 65.2364 11.0545 65.2364 10.7636 65.2364C10.4 65.3091 10.1091 65.3818 9.89091 65.5273C9.6 65.6727 9.30909 65.8182 8.94546 66.0364C8.36364 66.4 7.85455 66.6182 7.41818 66.7636C6.98182 66.9091 6.32727 67.0545 5.74546 66.9091L5.67273 65.3818C6.25455 65.4545 6.69091 65.3818 7.12728 65.2364C7.56364 65.0909 8 64.8727 8.58182 64.5818C9.01818 64.3636 9.38182 64.1454 9.67273 64C9.96364 63.8545 10.3273 63.7818 10.7636 63.7091C11.2 63.6364 11.6364 63.7091 12.1455 63.7818C13.0909 64 13.7455 64.4364 14.2545 65.0909C14.6909 65.8182 14.8364 66.6182 14.6182 67.6364C14.4727 68.2909 14.1818 68.8727 13.8182 69.3091C13.4545 69.7455 12.9455 69.9636 12.4364 70.1091C11.9273 70.2545 11.4182 70.2545 10.9091 70.1818C10.3273 70.0364 9.74546 69.8182 9.30909 69.3818L9.96364 68.1454C10.1091 68.2182 10.2545 68.3636 10.4727 68.4364C10.6909 68.5091 10.9091 68.5818 11.0545 68.6545C11.6364 68.8 12.1455 68.7273 12.5818 68.5091C13.0182 68.2909 13.2364 67.9273 13.3818 67.4182C13.4545 66.9091 13.3818 66.4727 13.0909 66.1091C12.8727 65.6727 12.4364 65.4545 11.8545 65.3091Z" fill="#FFC700"/>
<path d="M7.49092 53.5273V53.8909C7.4182 54.6909 7.56365 55.4182 7.92729 56.1455C8.29092 56.8 8.80001 57.3091 9.45456 57.6728V57.6C9.0182 57.2364 8.80001 56.8728 8.65456 56.3637C8.5091 55.8546 8.58183 55.4909 8.72729 55.1273C8.94547 54.6182 9.16365 54.3273 9.52729 54.1091C9.89092 53.8909 10.3273 53.7455 10.8364 53.7455V53.6728C10.4727 53.3819 10.2546 52.9455 10.1818 52.4364C10.1091 51.9273 10.1091 51.4182 10.3273 50.9819C10.5455 50.4728 10.9091 50.0364 11.3455 49.6728C11.7818 49.3091 12.4364 49.1637 13.0909 49.0909C13.8182 49.0909 14.5455 49.1637 15.2727 49.4546C16.3637 49.8909 17.2364 50.4 17.8909 51.1273C18.5455 51.8546 19.0546 52.5819 19.3455 53.3819L18.4727 54.2546C18.0364 53.5273 17.6 52.9455 17.0909 52.4364C16.5818 51.9273 15.8546 51.4909 14.9091 51.1273C14.0364 50.7637 13.3091 50.6909 12.7273 50.7637C12.1455 50.9091 11.7818 51.1273 11.6364 51.5637C11.4909 52 11.4909 52.3637 11.7818 52.7273C12 53.0909 12.4364 53.3819 12.9455 53.6L15.8546 54.7637L15.2727 56.2909L12.3637 55.1273C11.7818 54.9091 11.3455 54.8364 10.9091 54.9091C10.4727 54.9819 10.1818 55.2728 10.0364 55.6364C9.89092 56.0728 9.96365 56.5091 10.2546 57.0182C10.6182 57.4546 11.2 57.8909 12.0727 58.2546C13.0182 58.6182 13.8182 58.7637 14.5455 58.7637C15.2727 58.7637 16.0727 58.6182 16.8 58.3273L16.8727 59.6364C16 60.0728 15.0546 60.2909 14.1091 60.2909C13.0909 60.2909 12.1455 60.0728 11.1273 59.7091C9.60001 59.1273 8.5091 58.4728 7.78183 57.8182C6.69092 56.8 6.18183 55.4909 6.18183 53.8909V51.4182C6.18183 50.9091 6.1091 50.4 6.03638 49.8909L7.4182 49.7455C7.56365 50.2546 7.7091 50.9091 7.7091 51.7091C7.56365 52.1455 7.56365 52.8 7.49092 53.5273Z" fill="#FFC700"/>
<path d="M21.7455 35.1272C22.4 35.2726 23.0546 35.4908 23.7091 35.9272C24.6546 36.5817 25.3818 37.309 25.8909 38.109C26.4 38.909 26.6909 39.7817 26.8364 40.5817L25.7455 41.309C25.5273 40.509 25.1637 39.8544 24.8 39.1999C24.3637 38.6181 23.7818 38.0363 22.9091 37.4544C22.1091 36.9454 21.4546 36.6544 20.8727 36.6544C20.2909 36.6544 19.9273 36.7999 19.6364 37.1635C19.2727 37.7454 19.2727 38.3999 19.6364 39.1999C20.2909 39.3454 20.9455 39.6363 21.6727 40.1454C22.8364 40.9454 23.6364 41.8181 23.9273 42.7635C24.2182 43.709 24.0727 44.7272 23.4182 45.7454C22.7637 46.6908 21.9637 47.2726 20.8727 47.4181C19.8546 47.5635 18.7637 47.1999 17.5273 46.3999C16.8 45.8908 16.2182 45.309 15.7818 44.7272C15.3455 44.0726 15.2 43.4181 15.1273 42.7635C15.1273 42.109 15.3455 41.4544 15.7091 40.7999C16.4364 39.7817 17.3091 39.1999 18.4727 39.1272C18.1091 38.109 18.1818 37.1635 18.6909 36.3635C18.9818 35.8544 19.4182 35.5635 19.9273 35.3454C20.5091 35.0544 21.0909 34.9817 21.7455 35.1272ZM16.8 41.3817C16.4364 41.9635 16.3637 42.5454 16.6546 43.0544C16.9455 43.5635 17.5273 44.2181 18.5455 44.7999C19.4909 45.4544 20.2909 45.7453 20.9455 45.8181C21.5273 45.8181 22.0364 45.5272 22.4 44.9453C22.7637 44.4363 22.8364 43.8544 22.5455 43.3453C22.3273 42.7635 21.6727 42.1817 20.7273 41.5272C19.7818 40.8726 18.9818 40.5817 18.3273 40.5817C17.6727 40.5817 17.1637 40.7999 16.8 41.3817Z" fill="#FFC700"/>
<path d="M35.3454 36.2908C34.8363 36.7999 34.2545 37.1635 33.6 37.3817C32.9454 37.5999 32.3636 37.5999 31.7818 37.3817C31.2 37.2362 30.6182 36.8726 30.1091 36.4362C29.5273 35.9271 29.2363 35.2726 29.0909 34.618L30.4727 33.9635C30.6182 34.2544 30.6909 34.4726 30.8363 34.618C30.9818 34.8362 31.1273 34.9817 31.2727 35.1999C31.7818 35.7089 32.2909 35.9271 32.8727 35.9999C33.4545 36.0726 33.9636 35.8544 34.4 35.418C34.8363 34.9817 34.9818 34.4726 34.9091 33.8908C34.7636 33.3089 34.4727 32.7999 33.8909 32.2908L29.6 28.1453C29.1636 27.7089 28.8 27.4908 28.5091 27.418C28.2182 27.3453 27.9273 27.4908 27.6363 27.7817C27.1273 28.2908 27.2 28.8726 27.8545 29.5271L29.1636 30.8362L28.0727 31.9271L26.7636 30.618C26.1091 30.0362 25.6 29.8908 25.1636 30.3999C25.0909 30.4726 25.0182 30.5453 24.9454 30.618C24.8727 30.6908 24.8727 30.7635 24.8 30.7635C24.7273 30.9089 24.6545 30.9817 24.5818 31.0544C24.4363 31.1999 24.2182 31.3453 23.9273 31.4908L23.2 30.4726C23.3454 30.3999 23.4909 30.2544 23.7091 30.0362C23.7818 29.9635 23.8545 29.818 24 29.7453C24.0727 29.5999 24.2182 29.4544 24.3636 29.3817C24.9454 28.7999 25.6 28.7271 26.3273 29.0908V29.018C26.1091 28.6544 26.1091 28.218 26.1818 27.7817C26.3273 27.3453 26.4727 26.9817 26.8363 26.6908C27.4909 26.0362 28.0727 25.7453 28.7273 25.818C29.3818 25.8908 29.9636 26.1817 30.6182 26.8362L34.9818 31.1271C35.8545 31.9271 36.2909 32.7999 36.3636 33.7453C36.5091 34.618 36.1454 35.4908 35.3454 36.2908Z" fill="#FFC700"/>
<path d="M45.6 17.3819C45.0909 16.5819 44.5818 16.0728 44.0727 15.7819C43.5636 15.5637 43.1273 15.5637 42.7636 15.7819C42.4 16.0001 42.2545 16.3637 42.2545 16.8001C42.2545 17.2364 42.4 17.6728 42.7636 18.1819L44.4364 20.6546L43.1273 21.5273L41.4545 19.0546C40.7273 17.9637 40 17.6728 39.2 18.1819C38.8364 18.4728 38.6182 18.7637 38.6182 19.2001C38.6182 19.6364 38.8364 20.0728 39.1273 20.5819L40.8 23.0546L39.4909 24.0001L37.8182 21.5273C37.4545 21.0182 37.0909 20.6546 36.7273 20.5092C36.3636 20.3637 36 20.3637 35.6364 20.5819C35.2727 20.8728 35.0545 21.2364 35.1273 21.8182C35.1273 22.4001 35.4182 23.0546 35.9273 23.8546C36.4364 24.5819 37.0909 25.1637 37.8182 25.4546C38.5454 25.7455 39.3454 25.891 40.1454 25.891C40.9454 25.891 41.6 25.7455 42.2545 25.5273C43.3454 25.1637 44.3636 24.9455 45.4545 24.8728C46.4727 24.8001 47.3454 25.0182 48.0727 25.4546L47.2727 26.6182C46.7636 26.3273 46.1091 26.1819 45.4545 26.2546C44.8 26.3273 44.1454 26.4001 43.5636 26.6182C42.9818 26.8364 42.4727 27.0546 42.0364 27.3455C41.3091 27.7819 40.8727 28.3637 40.6545 28.9455L39.4182 28.5819C39.4909 28.291 39.6364 28.0728 39.7818 27.8546C39.9273 27.6364 40.0727 27.491 40.3636 27.3455C40.5091 27.2728 40.5818 27.2001 40.6545 27.1273C40.7273 27.0546 40.8727 27.0546 41.0182 26.9819V26.9092C39.8545 27.1273 38.6909 27.0546 37.4545 26.7637C36.2182 26.4728 35.2727 25.7455 34.4727 24.5819C34.0364 23.9273 33.7454 23.2728 33.6727 22.6182C33.5273 21.9637 33.6 21.3819 33.8182 20.8728C34.0364 20.3637 34.3273 19.9273 34.8364 19.5637C35.2727 19.2728 35.7091 19.1273 36.2182 19.1273C36.7273 19.1273 37.1636 19.2728 37.5273 19.491H37.6C37.5273 19.0546 37.5273 18.6182 37.6727 18.1819C37.8182 17.7455 38.1091 17.3819 38.5454 17.091C38.9818 16.8001 39.4182 16.6546 39.8545 16.7273C40.3636 16.7273 40.7273 16.8728 41.0909 17.1637H41.1636C41.0909 16.7273 41.0909 16.2182 41.3818 15.7819C41.6 15.2728 41.9636 14.9092 42.4 14.6182C42.8364 14.3273 43.3454 14.1819 43.9273 14.1819C44.5091 14.1819 45.0182 14.4001 45.6 14.7637C46.1818 15.1273 46.6182 15.6364 47.0545 16.291C47.9273 17.6001 48.3636 18.9092 48.3636 20.3637L46.9818 20.6546C46.9818 20.1455 46.8364 19.6364 46.6909 19.1273C46.3273 18.5455 46.0364 17.9637 45.6 17.3819Z" fill="#FFC700"/>
<path d="M56 10.1817C56.5091 10.6181 56.9455 11.1999 57.2364 11.9999C57.6727 13.0908 57.8909 14.0362 57.9636 14.9817C57.9636 15.9272 57.8909 16.7272 57.6 17.4544H56.2909C56.4364 16.6544 56.4364 15.9272 56.3637 15.2726C56.2909 14.6181 56.0727 13.8181 55.6364 12.8726C55.2727 11.9999 54.8364 11.4181 54.4 11.1272C53.8909 10.7635 53.3818 10.7635 52.8 10.9817C52.2182 11.1999 51.9273 11.6362 51.7818 12.2181C51.6364 12.7999 51.7818 13.5272 52.1455 14.3999C52.5091 15.3453 52.9455 16.0726 53.3818 16.6544C53.8182 17.2362 54.3273 17.6726 54.9818 18.109L54.1091 18.909C53.3818 18.5453 52.7273 18.0362 52.1455 17.3817C51.4909 16.7272 50.9818 15.8544 50.5455 14.7635C50.2546 13.9635 50.1091 13.309 50.1818 12.5817C50.2546 11.9272 50.4727 11.3453 50.8364 10.8362C51.2 10.3272 51.7091 9.96352 52.3637 9.67261C53.0182 9.3817 53.6 9.30897 54.2546 9.3817C54.9091 9.52715 55.4909 9.74534 56 10.1817Z" fill="#FFC700"/>
<path d="M70.6182 12.6544C71.2 12.5816 71.6364 12.2907 71.8545 11.8544C72.1455 11.418 72.2182 10.9089 72.0727 10.2544C72 9.67253 71.8545 9.16344 71.6364 8.87253C71.4182 8.58162 71.2 8.14526 70.8364 7.78162C70.4727 7.41799 70.2545 7.05435 70.0364 6.69071C69.8182 6.32708 69.6727 5.89071 69.4545 5.3089L70.9818 4.72708C71.1273 5.3089 71.2727 5.74526 71.4909 6.03617C71.7091 6.39981 71.9273 6.69071 72.2182 7.12708C72.5818 7.56344 72.8727 7.9998 73.0909 8.36344C73.3091 8.72708 73.4545 9.3089 73.6 10.1089C73.6727 10.6907 73.6727 11.2725 73.4545 11.8544C73.2364 12.4362 72.9455 12.8725 72.4364 13.2362C72 13.5998 71.4182 13.8907 70.7636 13.9634C70.1091 14.1089 69.4545 14.0362 68.8727 13.7453C68.2909 13.5271 67.8545 13.1634 67.4909 12.6544C67.1273 12.1453 67.0545 11.6362 66.9091 11.0543L65.6727 3.34526C65.5273 2.54526 65.3818 1.96344 65.1636 1.45435L66.6909 0.799805C66.9091 1.23617 67.1273 1.81799 67.2727 2.69071L68.5818 10.618C68.7273 11.3453 68.9455 11.9271 69.3091 12.2907C69.6 12.5816 70.0364 12.7271 70.6182 12.6544Z" fill="#FFC700"/>
<path d="M82.0364 9.74552C82.0364 9.30916 81.9636 8.94552 81.8182 8.65461C81.6727 8.36371 81.5273 8.0728 81.3818 7.85461C81.2364 7.63643 80.9455 7.34552 80.6545 7.05461C80.2182 6.61825 79.8545 6.18189 79.5636 5.74552C79.3455 5.30916 79.1273 4.80007 79.1273 4.21825L80.6545 3.85461C80.7273 4.43643 80.8727 4.8728 81.0909 5.23643C81.3091 5.60007 81.6727 6.03643 82.1091 6.4728C82.4727 6.83643 82.6909 7.20007 82.9091 7.41825C83.1273 7.70916 83.2727 8.00007 83.4182 8.43643C83.5636 8.80007 83.6364 9.30916 83.6364 9.81825C83.6364 10.7637 83.3455 11.5637 82.8364 12.1455C82.3273 12.7273 81.4545 13.091 80.4364 13.091C79.7091 13.091 79.1273 12.9455 78.6909 12.6546C78.1818 12.3637 77.8182 12.0001 77.6 11.491C77.3818 10.9819 77.2364 10.5455 77.2364 10.0364C77.2364 9.38189 77.3818 8.80007 77.6727 8.29098L78.9818 8.65461C78.9091 8.80007 78.8364 9.01825 78.8364 9.23643C78.7636 9.45461 78.7636 9.6728 78.7636 9.89098C78.7636 10.4728 78.9091 10.9819 79.2727 11.3455C79.5636 11.7092 80 11.8546 80.5091 11.8546C81.0182 11.8546 81.4545 11.6364 81.7455 11.2728C81.9636 10.8364 82.1091 10.4001 82.0364 9.74552Z" fill="#FFC700"/>
<path d="M89.8909 2.61815C89.8909 2.7636 89.8909 2.90906 89.8909 3.05451L88.4364 3.12724C88.3636 2.83633 88.2909 2.47269 88.3636 2.18179C88.4364 1.74542 88.5818 1.30906 88.9455 0.945421C89.3091 0.581785 89.6727 0.290876 90.1818 0.145421C90.6909 -3.31942e-05 91.3455 -0.0727605 92 -3.31905e-05C93.0182 0.145421 93.8182 0.509058 94.4 1.1636C94.9818 1.81815 95.2 2.61815 95.0545 3.63633L94.2546 9.89088C94.1091 11.2727 93.6727 12.2909 93.0182 12.8727C92.3636 13.4545 91.4182 13.6727 90.3273 13.6C89.0909 13.4545 88.2909 12.9454 87.7091 12.0727C87.2 11.2 86.9818 10.1091 87.1273 8.79997C87.2727 7.41815 87.7091 6.32724 88.4364 5.52724C89.1636 4.72724 90.0364 4.43633 91.1273 4.58179C91.5636 4.65451 91.9273 4.72724 92.2909 4.94542C92.6545 5.1636 92.9455 5.45451 93.2364 5.81815C93.2364 5.67269 93.3091 5.23633 93.3818 4.43633L93.4545 3.70906C93.5273 3.05451 93.4546 2.47269 93.1636 2.10906C92.8727 1.74542 92.4364 1.45451 91.8545 1.38179C91.3455 1.30906 90.9091 1.38179 90.5455 1.59997C90.1818 1.74542 89.9636 2.10906 89.8909 2.61815ZM90.4727 12.2909C91.1273 12.3636 91.6364 12.2181 92 11.7091C92.3636 11.2727 92.5818 10.4727 92.7273 9.38178L93.0182 7.05451C92.8727 6.69088 92.5818 6.39997 92.2909 6.18179C92 5.9636 91.6364 5.81815 91.2727 5.81815C90.5455 5.74542 90.0364 5.9636 89.6 6.39997C89.1636 6.83633 88.9455 7.63633 88.8 8.72724C88.6545 9.9636 88.7273 10.8363 89.0182 11.3454C89.3091 11.8545 89.8182 12.2181 90.4727 12.2909Z" fill="#FFC700"/>
<path d="M104 7.20011C104.727 7.41829 105.309 7.78193 105.745 8.36375C106.182 8.87284 106.473 9.52739 106.545 10.2547C106.691 10.9819 106.618 11.7819 106.327 12.5819C105.964 13.9637 105.309 14.9092 104.436 15.491C103.564 16.0728 102.545 16.2183 101.382 15.8547C100.218 15.491 99.4909 14.9092 99.0546 13.9637C98.6182 13.0183 98.6182 11.8547 98.9818 10.4728C99.3455 9.23648 99.9273 8.43648 100.655 7.92738V7.85466C100.073 7.41829 99.6364 6.9092 99.4182 6.25466C99.1273 5.60011 99.1273 4.87284 99.3455 4.21829C99.5637 3.34557 100.073 2.76375 100.727 2.40011C101.382 2.03648 102.109 1.96375 102.982 2.18193C103.491 2.32739 104 2.61829 104.364 2.98193C104.727 3.34557 104.945 3.78193 105.091 4.29102C105.236 4.80011 105.164 5.3092 105.018 5.81829C104.945 6.1092 104.8 6.40011 104.582 6.69102C104.364 6.98193 104.218 7.05466 104 7.20011ZM103.564 8.36375C102.909 8.14557 102.327 8.29102 101.891 8.72739C101.455 9.16375 101.091 9.89102 100.727 10.9819C100.364 12.1456 100.291 12.9456 100.509 13.5274C100.655 14.1092 101.091 14.4728 101.745 14.691C102.327 14.8365 102.909 14.7637 103.345 14.4001C103.782 14.0365 104.218 13.2365 104.509 12.1456C104.8 11.0547 104.873 10.2547 104.727 9.60011C104.582 8.94557 104.218 8.58193 103.564 8.36375ZM102.691 3.27284C102.255 3.12739 101.891 3.20011 101.6 3.49102C101.309 3.78193 101.091 4.14557 100.945 4.65466C100.655 5.67284 100.945 6.54557 101.745 7.27284C102.691 6.98193 103.273 6.32739 103.491 5.38193C103.636 4.87284 103.636 4.43648 103.491 4.00011C103.345 3.56375 103.127 3.41829 102.691 3.27284Z" fill="#FFC700"/>
<path d="M113.673 17.1637C113.818 16.8 113.964 16.4364 113.964 16.0728C113.964 15.7091 113.964 15.4182 113.891 15.1273C113.818 14.8364 113.745 14.4728 113.6 14.0364C113.382 13.3819 113.236 12.8728 113.236 12.3637C113.236 11.8546 113.309 11.3455 113.527 10.7637L115.055 11.0546C114.836 11.5637 114.836 12.0728 114.836 12.5091C114.909 12.9455 114.982 13.4546 115.2 14.1091C115.345 14.6182 115.418 14.9819 115.491 15.3455C115.564 15.7091 115.564 16.0728 115.491 16.4364C115.418 16.8728 115.345 17.3091 115.055 17.7455C114.691 18.6182 114.036 19.2 113.309 19.4909C112.509 19.7819 111.709 19.7091 110.764 19.2728C110.109 18.9819 109.673 18.6182 109.382 18.1091C109.091 17.6 108.945 17.0909 108.873 16.5819C108.873 16.0728 108.945 15.5637 109.164 15.0546C109.455 14.4728 109.818 14.0364 110.327 13.6728L111.345 14.5455C111.2 14.6182 111.055 14.8364 110.982 14.9819C110.836 15.2 110.764 15.3455 110.691 15.4909C110.4 16.0728 110.327 16.5819 110.473 17.0182C110.618 17.4546 110.909 17.8182 111.345 18.0364C111.782 18.2546 112.291 18.2546 112.727 18.0364C113.018 18.1091 113.382 17.7455 113.673 17.1637Z" fill="#FFC700"/>
<path d="M126.109 15.7092L125.745 15.6364C124.945 15.4183 124.218 15.3455 123.491 15.5637C122.764 15.7092 122.182 16.1455 121.673 16.7273L121.745 16.8001C122.182 16.5092 122.618 16.291 123.127 16.291C123.636 16.291 124 16.3637 124.364 16.6546C124.8 16.9455 125.091 17.3092 125.164 17.6728C125.236 18.0364 125.309 18.5455 125.164 18.9819H125.236C125.6 18.691 126.036 18.6183 126.545 18.6183C127.055 18.6183 127.491 18.7637 127.927 19.1273C128.364 19.4183 128.727 19.8546 128.945 20.4364C129.164 21.0183 129.236 21.6001 129.091 22.2546C129.018 22.9092 128.727 23.5637 128.291 24.2183C127.636 25.1637 126.909 25.891 126.036 26.4001C125.236 26.9092 124.364 27.2001 123.491 27.2728L122.836 26.1819C123.636 25.9637 124.364 25.6728 124.945 25.2364C125.527 24.8001 126.182 24.2183 126.764 23.4183C127.273 22.6183 127.564 21.9637 127.564 21.3819C127.564 20.8001 127.418 20.3637 127.055 20.1455C126.691 19.9273 126.327 19.8546 125.891 20.0001C125.455 20.1455 125.091 20.5092 124.8 20.9455L122.982 23.5637L121.673 22.6183L123.491 20.0001C123.855 19.491 124 19.0546 124 18.6183C124 18.1819 123.855 17.8183 123.491 17.6001C123.127 17.3092 122.618 17.3092 122.109 17.5273C121.6 17.7455 121.018 18.2546 120.509 19.0546C119.927 19.8546 119.564 20.6546 119.418 21.3819C119.273 22.1092 119.2 22.8364 119.273 23.7092L118.036 23.491C117.818 22.5455 117.818 21.6001 118.036 20.6546C118.255 19.7092 118.691 18.7637 119.345 17.891C120.291 16.5819 121.164 15.6364 121.964 15.0546C123.2 14.2546 124.582 14.0364 126.182 14.4001L128.582 14.9819C129.091 15.1273 129.6 15.2001 130.109 15.2001L129.891 16.5819C129.382 16.6546 128.727 16.5819 127.855 16.3637C127.418 16.0728 126.836 15.9273 126.109 15.7092Z" fill="#FFC700"/>
<path d="M128.291 34.4726C128.727 34.909 129.236 35.0544 129.745 34.9817C130.255 34.8362 130.836 34.5453 131.345 33.9635L135.273 30.0362C135.782 29.5272 136 29.0908 136.073 28.5817C136.073 28.0726 135.927 27.6362 135.491 27.2726C135.127 26.909 134.691 26.7635 134.255 26.7635C133.818 26.7635 133.382 27.0544 132.945 27.4181C132.727 27.6362 132.582 27.8544 132.509 28.1453L131.273 27.3453C131.345 27.1272 131.418 26.909 131.564 26.6908C131.636 26.5453 131.782 26.3272 132 26.1817C132.364 25.8181 132.8 25.5999 133.236 25.4544C133.673 25.309 134.255 25.309 134.764 25.4544C135.345 25.5999 135.855 25.8908 136.364 26.3999C137.091 27.1272 137.455 27.9272 137.527 28.7272C137.527 29.5272 137.236 30.3272 136.509 31.0544L132.436 35.2726C131.636 36.0726 130.764 36.509 129.891 36.5817C129.018 36.6544 128.145 36.2181 127.345 35.4181C126.545 34.6181 126.109 33.7453 126.182 32.8726C126.182 31.9999 126.545 31.1999 127.273 30.3999C127.564 30.109 127.927 29.8181 128.291 29.5999C128.655 29.3817 128.945 29.309 129.164 29.2362L129.818 30.6181C129.527 30.6908 129.309 30.8362 129.164 30.9817C129.018 31.1272 128.8 31.2726 128.582 31.4181C128.073 31.9272 127.782 32.4362 127.709 33.0181C127.709 33.5999 127.855 34.109 128.291 34.4726Z" fill="#FFC700"/>
<path d="M133.964 42.9817C133.527 42.3999 133.236 41.7454 133.164 41.0908C133.091 40.4363 133.164 39.8545 133.455 39.2727C133.745 38.6908 134.109 38.1817 134.691 37.8181C135.345 37.3817 136 37.0908 136.655 37.1636L137.091 38.6181C136.8 38.6908 136.582 38.7636 136.364 38.8363C136.145 38.909 135.927 39.0545 135.782 39.1999C135.2 39.6363 134.909 40.0727 134.764 40.6545C134.618 41.2363 134.764 41.7454 135.127 42.2545C135.491 42.7636 136 42.9817 136.582 42.9817C137.164 42.9817 137.745 42.6908 138.327 42.2545L143.127 38.6908C143.636 38.3272 143.927 38.0363 144 37.7454C144.145 37.4545 144.073 37.1636 143.782 36.7999C143.345 36.2181 142.764 36.2181 142.036 36.7999L140.582 37.8908L139.636 36.6545L141.091 35.5636C141.818 35.0545 141.964 34.5454 141.6 34.0363C141.527 33.9636 141.455 33.8908 141.382 33.8181C141.309 33.7454 141.236 33.6727 141.236 33.6727C141.164 33.5999 141.018 33.5272 140.945 33.3817C140.8 33.2363 140.727 32.9454 140.582 32.6545L141.673 32.1454C141.745 32.2908 141.818 32.509 141.964 32.7272C142.036 32.7999 142.109 32.9454 142.255 33.0181C142.4 33.0908 142.473 33.2363 142.618 33.3817C143.127 34.0363 143.127 34.6908 142.618 35.3454V35.4181C143.055 35.2727 143.418 35.3454 143.855 35.4908C144.218 35.6363 144.582 35.9272 144.8 36.2908C145.309 37.0181 145.527 37.6727 145.382 38.2545C145.236 38.8363 144.8 39.4181 144.073 39.9272L139.127 43.5636C138.182 44.2908 137.236 44.5817 136.364 44.509C135.491 44.4363 134.691 43.9272 133.964 42.9817Z" fill="#FFC700"/>
<path d="M151.055 56.2181C151.927 55.7818 152.509 55.4181 152.873 54.9818C153.164 54.5454 153.236 54.1091 153.091 53.6727C152.945 53.3091 152.582 53.0181 152.145 52.9454C151.709 52.8727 151.2 52.9454 150.691 53.2363L148 54.4727L147.345 53.0181L150.036 51.7818C151.2 51.2 151.636 50.5454 151.273 49.7454C151.055 49.3091 150.764 49.0909 150.327 49.0181C149.891 48.9454 149.455 49.0909 148.873 49.3091L146.182 50.5454L145.527 49.0909L148.218 47.8545C148.8 47.6363 149.164 47.2727 149.382 46.9818C149.6 46.6181 149.673 46.2545 149.455 45.8909C149.236 45.4545 148.873 45.2363 148.291 45.1636C147.709 45.0909 146.982 45.2363 146.182 45.6727C145.382 46.0363 144.727 46.6181 144.291 47.2727C143.855 48 143.564 48.7272 143.491 49.4545C143.418 50.2545 143.418 50.909 143.491 51.6363C143.709 52.7272 143.709 53.8181 143.636 54.909C143.564 56 143.2 56.8 142.691 57.3818L141.673 56.3636C142.036 55.8545 142.255 55.3454 142.327 54.6909C142.4 54.0363 142.4 53.3818 142.255 52.8C142.109 52.1454 141.964 51.6363 141.745 51.1272C141.382 50.4 140.945 49.8181 140.364 49.5272L140.945 48.3636C141.236 48.5091 141.455 48.6545 141.6 48.8C141.745 48.9454 141.891 49.1636 142.036 49.4545C142.109 49.6 142.109 49.6727 142.182 49.8181C142.182 49.8909 142.255 50.0363 142.255 50.1818H142.327C142.327 49.0181 142.545 47.8545 143.055 46.6909C143.564 45.5272 144.436 44.6545 145.673 44.0727C146.4 43.7091 147.055 43.5636 147.709 43.5636C148.364 43.5636 148.945 43.7091 149.455 44C149.964 44.2909 150.327 44.6545 150.545 45.2363C150.764 45.7454 150.836 46.1818 150.764 46.6909C150.691 47.2 150.473 47.5636 150.182 47.9272V48C150.618 48 151.055 48.0727 151.491 48.2909C151.927 48.5091 152.218 48.8727 152.436 49.3091C152.655 49.7454 152.727 50.1818 152.582 50.6909C152.436 51.2 152.291 51.5636 152 51.8545V51.9272C152.436 51.9272 152.945 52 153.382 52.3636C153.818 52.7272 154.182 53.0909 154.4 53.5272C154.618 54.0363 154.691 54.5454 154.618 55.1272C154.473 55.6363 154.255 56.1454 153.818 56.6545C153.382 57.1636 152.8 57.5272 152.073 57.8909C150.691 58.5454 149.236 58.7636 147.855 58.4727L147.782 57.0909C148.291 57.1636 148.873 57.1636 149.382 57.0181C149.745 56.7272 150.4 56.5091 151.055 56.2181Z" fill="#FFC700"/>
<path d="M157.091 71.5636C156.582 72 155.927 72.2181 155.127 72.4363C153.964 72.6545 152.945 72.6545 152.073 72.4363C151.127 72.2181 150.327 71.8545 149.673 71.3454L149.964 70.1091C150.691 70.4727 151.418 70.7636 152.145 70.9091C152.873 71.0545 153.745 71.0545 154.691 70.8363C155.636 70.6181 156.291 70.3272 156.727 69.9636C157.164 69.5272 157.309 69.1636 157.236 68.6545C157.164 68.2181 156.945 67.9272 156.582 67.7818C156.218 67.6363 155.782 67.5636 155.127 67.7091L151.927 68.3636L151.636 66.7636L154.836 66.1091C155.418 65.9636 155.855 65.7454 156.145 65.4545C156.436 65.1636 156.509 64.8 156.436 64.3636C156.364 63.9272 156 63.5636 155.491 63.3454C154.982 63.1272 154.182 63.1272 153.309 63.2727C152.364 63.4909 151.564 63.7818 150.909 64.2181C150.327 64.6545 149.745 65.1636 149.236 65.8181L148.509 64.8C148.945 64.0727 149.527 63.4181 150.327 62.8363C151.127 62.2545 152.073 61.8909 153.164 61.6727C153.964 61.5272 154.618 61.5272 155.273 61.6727C155.927 61.8181 156.436 62.1091 156.873 62.5454C157.309 62.9818 157.527 63.4181 157.673 64C157.745 64.5091 157.745 65.0181 157.527 65.4545C157.309 65.8909 157.018 66.2545 156.655 66.5454V66.6181C157.091 66.6909 157.527 66.9091 157.891 67.2727C158.255 67.6363 158.473 68.0727 158.618 68.5818C158.764 69.1636 158.691 69.6727 158.473 70.2545C157.964 70.6909 157.6 71.1272 157.091 71.5636Z" fill="#FFC700"/>
<path d="M152.873 92.1454C153.309 92.2181 153.673 92.1454 153.964 92.0727C154.255 91.9999 154.618 91.8545 154.836 91.709C155.055 91.5636 155.418 91.3454 155.782 91.1272C156.291 90.7636 156.8 90.4726 157.236 90.2545C157.673 90.0363 158.182 89.9636 158.836 90.0363L158.982 91.5636C158.4 91.5636 157.964 91.6363 157.527 91.7817C157.091 91.9272 156.655 92.2181 156.145 92.5817C155.709 92.8727 155.345 93.0908 155.055 93.2363C154.764 93.3817 154.4 93.5272 153.964 93.5999C153.527 93.6727 153.091 93.6727 152.582 93.5999C151.636 93.4545 150.909 93.0908 150.4 92.4363C149.891 91.7817 149.673 90.9817 149.818 89.9636C149.891 89.2363 150.109 88.7272 150.473 88.2908C150.836 87.8545 151.273 87.5636 151.782 87.3454C152.291 87.1999 152.8 87.1272 153.309 87.1999C153.964 87.2726 154.473 87.4908 154.982 87.8545L154.473 89.0908C154.327 89.0181 154.182 88.9454 153.964 88.8726C153.745 88.7999 153.527 88.7272 153.382 88.7272C152.8 88.6545 152.291 88.7272 151.855 89.0181C151.418 89.309 151.2 89.6726 151.127 90.1817C151.055 90.6908 151.2 91.1272 151.564 91.4908C151.782 91.8545 152.291 92.0727 152.873 92.1454Z" fill="#FFC700"/>
<path d="M158.109 103.491V103.127C158.109 102.327 157.891 101.6 157.527 100.946C157.164 100.291 156.582 99.8546 155.855 99.5637V99.6365C156.291 99.9274 156.582 100.291 156.727 100.8C156.873 101.309 156.873 101.673 156.8 102.036C156.655 102.546 156.436 102.909 156.073 103.127C155.709 103.346 155.273 103.491 154.836 103.564V103.636C155.2 103.927 155.418 104.291 155.564 104.8C155.709 105.309 155.709 105.818 155.564 106.255C155.418 106.836 155.055 107.273 154.618 107.636C154.182 108 153.6 108.218 152.945 108.364C152.291 108.436 151.564 108.436 150.836 108.146C149.745 107.782 148.8 107.346 148.145 106.691C147.491 106.036 146.909 105.382 146.545 104.582L147.345 103.636C147.782 104.291 148.291 104.873 148.873 105.382C149.455 105.891 150.182 106.255 151.127 106.546C152 106.836 152.727 106.909 153.309 106.691C153.891 106.473 154.182 106.255 154.327 105.818C154.473 105.382 154.4 105.018 154.109 104.727C153.818 104.364 153.382 104.146 152.873 103.927L149.891 103.055L150.327 101.527L153.309 102.4C153.891 102.546 154.4 102.618 154.764 102.473C155.2 102.327 155.418 102.036 155.564 101.673C155.709 101.236 155.564 100.8 155.2 100.364C154.836 99.9274 154.182 99.5637 153.309 99.2728C152.364 98.9819 151.491 98.9092 150.764 98.9819C150.036 99.0546 149.309 99.2728 148.509 99.5637L148.364 98.1819C149.164 97.6728 150.109 97.3819 151.055 97.3092C152 97.2365 153.091 97.3819 154.109 97.6728C155.636 98.1092 156.8 98.691 157.6 99.2728C158.764 100.146 159.418 101.455 159.491 103.055L159.709 105.527C159.709 106.036 159.855 106.546 160 107.055L158.618 107.273C158.4 106.764 158.255 106.109 158.182 105.309C158.182 104.873 158.182 104.218 158.109 103.491Z" fill="#FFC700"/>
<path d="M145.455 123.055C144.8 122.982 144.145 122.764 143.418 122.4C142.4 121.818 141.6 121.164 141.091 120.436C140.582 119.709 140.145 118.836 139.927 118.036L140.945 117.236C141.236 118.036 141.6 118.691 142.109 119.273C142.618 119.855 143.2 120.364 144.073 120.873C144.873 121.309 145.6 121.527 146.182 121.527C146.764 121.527 147.127 121.309 147.345 120.873C147.636 120.291 147.636 119.636 147.2 118.836C146.545 118.764 145.818 118.473 145.091 118.109C143.855 117.455 143.055 116.582 142.618 115.636C142.255 114.691 142.327 113.673 142.909 112.655C143.491 111.636 144.291 110.982 145.309 110.836C146.327 110.691 147.491 110.909 148.727 111.564C149.527 112 150.182 112.509 150.618 113.091C151.055 113.673 151.345 114.327 151.418 114.982C151.491 115.636 151.345 116.291 150.982 117.018C150.4 118.109 149.527 118.764 148.364 118.909C148.873 119.927 148.873 120.873 148.364 121.673C148.073 122.182 147.709 122.545 147.2 122.764C146.691 122.982 146.109 123.127 145.455 123.055ZM149.891 116.364C150.255 115.782 150.255 115.2 149.891 114.691C149.527 114.182 148.873 113.6 147.855 113.091C146.836 112.509 146.036 112.291 145.382 112.291C144.8 112.291 144.291 112.655 144 113.236C143.709 113.818 143.709 114.327 144 114.909C144.291 115.418 144.945 116 145.964 116.582C146.982 117.091 147.782 117.382 148.436 117.309C149.091 117.236 149.527 116.945 149.891 116.364Z" fill="#FFC700"/>
<path d="M131.855 122.909C132.364 122.327 132.873 121.891 133.455 121.673C134.036 121.454 134.691 121.382 135.273 121.527C135.927 121.673 136.436 121.891 137.018 122.327C137.6 122.836 137.964 123.418 138.182 124.073L136.873 124.873C136.727 124.582 136.582 124.364 136.436 124.218C136.291 124.073 136.145 123.854 135.927 123.709C135.418 123.273 134.836 123.054 134.255 123.054C133.673 123.054 133.236 123.273 132.8 123.782C132.364 124.291 132.291 124.8 132.436 125.309C132.582 125.818 132.945 126.4 133.527 126.836L138.109 130.618C138.545 130.982 138.982 131.2 139.273 131.273C139.564 131.345 139.855 131.2 140.145 130.836C140.582 130.254 140.509 129.673 139.782 129.091L138.327 127.927L139.345 126.691L140.8 127.854C141.455 128.436 142.036 128.436 142.4 128C142.473 127.927 142.545 127.854 142.545 127.782C142.618 127.709 142.618 127.636 142.618 127.636C142.691 127.491 142.764 127.418 142.836 127.273C142.982 127.127 143.2 126.909 143.491 126.764L144.291 127.709C144.145 127.782 144 127.927 143.855 128.145C143.782 128.218 143.709 128.364 143.636 128.509C143.564 128.654 143.418 128.8 143.345 128.945C142.836 129.6 142.182 129.745 141.455 129.382V129.454C141.673 129.818 141.745 130.182 141.673 130.618C141.6 131.054 141.382 131.418 141.164 131.782C140.582 132.509 140 132.8 139.418 132.8C138.836 132.8 138.182 132.509 137.455 131.927L132.727 128C131.855 127.273 131.273 126.4 131.127 125.527C130.982 124.654 131.127 123.782 131.855 122.909Z" fill="#FFC700"/>
<path d="M123.127 142.618C123.709 143.345 124.291 143.855 124.8 144.073C125.309 144.291 125.745 144.218 126.109 143.927C126.473 143.636 126.618 143.273 126.545 142.836C126.473 142.4 126.327 141.964 125.964 141.455L124.145 139.127L125.382 138.109L127.2 140.436C128 141.455 128.8 141.673 129.527 141.091C129.891 140.8 130.036 140.436 130.036 140C129.964 139.564 129.745 139.127 129.382 138.691L127.564 136.364L128.8 135.345L130.618 137.673C130.982 138.109 131.345 138.473 131.782 138.618C132.145 138.764 132.509 138.691 132.873 138.473C133.236 138.182 133.382 137.745 133.309 137.164C133.236 136.582 132.945 135.927 132.291 135.2C131.709 134.473 131.055 134.036 130.255 133.745C129.455 133.527 128.727 133.382 127.927 133.527C127.127 133.6 126.473 133.818 125.818 134.036C124.8 134.473 123.709 134.764 122.691 134.909C121.673 135.055 120.8 134.982 120.073 134.545L120.8 133.309C121.382 133.527 121.964 133.6 122.618 133.527C123.273 133.455 123.855 133.309 124.436 133.018C125.018 132.727 125.527 132.436 125.891 132.145C126.545 131.636 126.982 131.055 127.127 130.4L128.364 130.691C128.291 130.982 128.218 131.273 128.073 131.418C127.927 131.564 127.782 131.782 127.564 132C127.491 132.073 127.345 132.145 127.273 132.218C127.2 132.291 127.055 132.291 126.909 132.364V132.436C128.073 132.145 129.236 132.073 130.473 132.291C131.709 132.509 132.727 133.164 133.6 134.255C134.109 134.836 134.4 135.491 134.618 136.145C134.764 136.8 134.764 137.382 134.618 137.891C134.473 138.4 134.182 138.909 133.745 139.273C133.309 139.564 132.873 139.782 132.364 139.855C131.855 139.927 131.418 139.782 131.055 139.564H130.982C131.127 140 131.127 140.436 130.982 140.873C130.836 141.309 130.618 141.745 130.182 142.036C129.818 142.327 129.382 142.473 128.873 142.545C128.364 142.545 128 142.473 127.564 142.255H127.491C127.636 142.691 127.636 143.127 127.418 143.636C127.2 144.145 126.909 144.582 126.473 144.873C126.036 145.236 125.527 145.382 125.018 145.455C124.436 145.455 123.927 145.309 123.345 145.018C122.764 144.727 122.255 144.218 121.745 143.636C120.8 142.4 120.218 141.091 120.145 139.709L121.527 139.345C121.6 139.855 121.745 140.364 121.964 140.873C122.327 141.527 122.618 142.036 123.127 142.618Z" fill="#FFC700"/>
<path d="M113.309 150.618C112.727 150.255 112.291 149.673 111.927 148.945C111.418 147.927 111.127 146.982 110.982 146.036C110.909 145.091 110.909 144.291 111.127 143.564L112.364 143.491C112.291 144.291 112.291 145.018 112.436 145.673C112.582 146.327 112.873 147.127 113.309 148.073C113.745 148.873 114.182 149.455 114.691 149.745C115.2 150.036 115.782 150.036 116.291 149.745C116.8 149.455 117.164 149.018 117.236 148.436C117.309 147.855 117.164 147.127 116.727 146.327C116.291 145.382 115.782 144.727 115.345 144.218C114.909 143.709 114.327 143.273 113.6 142.909L114.4 141.964C115.127 142.255 115.855 142.691 116.509 143.345C117.164 144 117.818 144.8 118.327 145.818C118.691 146.545 118.909 147.273 118.909 147.927C118.909 148.582 118.691 149.236 118.4 149.745C118.036 150.255 117.6 150.691 116.945 150.982C116.364 151.273 115.709 151.418 115.055 151.418C114.4 151.418 113.891 150.982 113.309 150.618Z" fill="#FFC700"/>
<path d="M98.5455 149.382C97.9636 149.527 97.6 149.818 97.3818 150.254C97.1636 150.691 97.0909 151.273 97.3091 151.927C97.4546 152.509 97.6727 152.945 97.8909 153.309C98.1091 153.6 98.4 153.964 98.7636 154.327C99.1273 154.691 99.4182 154.982 99.6364 155.345C99.8546 155.636 100.073 156.145 100.291 156.727L98.8364 157.454C98.6182 156.945 98.4 156.509 98.1818 156.145C97.9636 155.854 97.6727 155.491 97.3091 155.127C96.8727 154.691 96.5818 154.327 96.3636 153.964C96.1455 153.6 95.9273 153.018 95.7091 152.291C95.5636 151.709 95.5636 151.127 95.7091 150.545C95.8546 149.964 96.1455 149.454 96.5818 149.091C97.0182 148.654 97.5273 148.364 98.1818 148.218C98.8364 148.073 99.4909 148.073 100.073 148.291C100.655 148.509 101.164 148.8 101.527 149.236C101.891 149.673 102.182 150.182 102.327 150.764L104.218 158.327C104.436 159.054 104.655 159.709 104.945 160.218L103.491 160.945C103.2 160.582 102.982 159.927 102.764 159.127L100.8 151.273C100.655 150.545 100.364 150.036 99.9273 149.673C99.5636 149.382 99.1273 149.236 98.5455 149.382Z" fill="#FFC700"/>
<path d="M87.4182 153.164C87.4909 153.6 87.5636 153.964 87.7091 154.254C87.8545 154.545 88.0727 154.836 88.2182 155.054C88.4364 155.273 88.6545 155.491 89.0182 155.782C89.5273 156.218 89.8909 156.582 90.1818 157.018C90.4727 157.454 90.6909 157.891 90.7636 158.545L89.3091 159.054C89.1636 158.473 89.0182 158.036 88.7273 157.673C88.4364 157.309 88.0727 156.945 87.6364 156.509C87.2727 156.145 86.9818 155.854 86.7636 155.636C86.5454 155.418 86.3273 155.054 86.1818 154.691C86.0364 154.327 85.8909 153.891 85.8182 153.309C85.7454 152.364 85.9636 151.564 86.4727 150.909C86.9818 150.254 87.7818 149.891 88.7273 149.745C89.4545 149.673 90.0364 149.745 90.5454 150.036C91.0545 150.327 91.4909 150.618 91.7091 151.127C92 151.564 92.1454 152.073 92.2182 152.582C92.2909 153.236 92.2182 153.818 91.9273 154.327L90.5454 154.109C90.6182 153.964 90.6182 153.745 90.6909 153.527C90.7636 153.309 90.6909 153.091 90.6909 152.873C90.6182 152.291 90.4 151.782 90.1091 151.418C89.7454 151.054 89.3818 150.909 88.8727 150.982C88.3636 151.054 88 151.273 87.7091 151.636C87.4182 152.073 87.3454 152.582 87.4182 153.164Z" fill="#FFC700"/>
<path d="M80.1454 160.945C80.1454 160.8 80.1454 160.654 80.0727 160.509L81.5273 160.291C81.6727 160.582 81.6727 160.945 81.6727 161.236C81.6727 161.673 81.5273 162.109 81.2364 162.473C80.9454 162.836 80.5818 163.127 80.0727 163.345C79.5636 163.564 78.9091 163.636 78.2545 163.636C77.2364 163.564 76.3636 163.273 75.7818 162.691C75.2 162.109 74.9091 161.309 74.9091 160.291L75.2 154.036C75.2727 152.654 75.5636 151.564 76.2182 150.909C76.8727 150.254 77.7455 149.964 78.9091 150.036C80.1455 150.109 81.0182 150.545 81.6 151.345C82.1818 152.145 82.4727 153.236 82.4 154.618C82.3273 156 81.9636 157.164 81.3818 157.964C80.7273 158.764 79.9273 159.2 78.7636 159.127C78.3273 159.127 77.9636 158.982 77.5273 158.836C77.0909 158.691 76.8 158.4 76.5091 158.036C76.5091 158.182 76.5091 158.618 76.5091 159.418V160.145C76.5091 160.8 76.6545 161.382 76.9455 161.745C77.2364 162.109 77.7454 162.327 78.3273 162.327C78.8364 162.327 79.2727 162.254 79.6364 161.964C79.9273 161.818 80.1454 161.454 80.1454 160.945ZM78.7636 151.345C78.1091 151.345 77.6 151.564 77.2364 152C76.9454 152.509 76.7273 153.309 76.6545 154.4L76.5818 156.727C76.8 157.091 77.0182 157.309 77.3818 157.527C77.6727 157.745 78.0364 157.818 78.4 157.818C79.1273 157.818 79.6364 157.6 80 157.091C80.3636 156.582 80.5818 155.782 80.5818 154.691C80.6545 153.454 80.5091 152.582 80.2182 152.073C79.9273 151.636 79.4182 151.345 78.7636 151.345Z" fill="#FFC700"/>
<path d="M65.7454 157.527C65.0182 157.309 64.4364 157.018 63.9273 156.509C63.4182 156 63.1273 155.418 62.9818 154.691C62.8363 153.964 62.8363 153.164 62.9818 152.291C63.2727 150.909 63.7818 149.891 64.6545 149.236C65.4545 148.582 66.4727 148.364 67.6364 148.655C68.8 148.873 69.6 149.455 70.1091 150.4C70.6182 151.345 70.6909 152.436 70.4 153.891C70.1818 155.127 69.6727 156 68.9454 156.582V156.655C69.5273 157.018 70.0364 157.527 70.3273 158.182C70.6182 158.836 70.6909 159.491 70.5454 160.218C70.3273 161.091 69.9636 161.745 69.3091 162.182C68.6545 162.618 67.9273 162.691 67.1273 162.545C66.5454 162.4 66.1091 162.182 65.7454 161.891C65.3818 161.527 65.0909 161.164 64.9454 160.655C64.8 160.145 64.7273 159.636 64.8727 159.127C64.9454 158.836 65.0182 158.545 65.2363 158.255C65.4545 157.964 65.5273 157.673 65.7454 157.527ZM66.1091 156.291C66.7636 156.436 67.3454 156.291 67.7818 155.855C68.2182 155.418 68.5091 154.618 68.7273 153.455C68.9454 152.291 68.9454 151.418 68.7273 150.909C68.5091 150.327 68.0727 149.964 67.3454 149.891C66.6909 149.745 66.1818 149.891 65.7454 150.327C65.3091 150.764 64.9454 151.564 64.7273 152.655C64.5091 153.745 64.5091 154.618 64.7273 155.2C64.9454 155.782 65.4545 156.218 66.1091 156.291ZM67.3454 161.309C67.7818 161.382 68.1454 161.309 68.4364 161.018C68.7273 160.727 68.9454 160.364 69.0182 159.782C69.2364 158.764 68.8727 157.964 68 157.236C67.1273 157.6 66.5454 158.255 66.4 159.273C66.2545 159.782 66.3273 160.291 66.4727 160.655C66.6182 161.018 66.9091 161.236 67.3454 161.309Z" fill="#FFC700"/>
<path d="M55.2727 148.364C55.1273 148.727 55.0545 149.091 55.0545 149.454C55.0545 149.818 55.1273 150.109 55.2 150.4C55.2727 150.691 55.4182 151.054 55.5636 151.418C55.8545 152 56 152.582 56.0727 153.018C56.1455 153.454 56.1455 154.036 55.9273 154.618L54.4 154.4C54.5455 153.891 54.5455 153.382 54.4727 152.945C54.4 152.509 54.2545 152 54.0364 151.418C53.8182 150.909 53.7455 150.545 53.6 150.182C53.5273 149.891 53.4545 149.454 53.4545 149.091C53.4545 148.654 53.5273 148.218 53.7455 147.709C54.1091 146.836 54.6182 146.182 55.3455 145.818C56.0727 145.455 56.9455 145.455 57.8909 145.818C58.5455 146.036 59.0545 146.4 59.4182 146.836C59.7818 147.273 60 147.782 60 148.291C60.0727 148.8 60 149.309 59.8545 149.818C59.6364 150.4 59.2727 150.909 58.8364 151.273L57.7455 150.473C57.8909 150.327 57.9636 150.182 58.1091 150.036C58.2545 149.891 58.3273 149.673 58.4 149.454C58.6182 148.873 58.6182 148.364 58.4727 147.927C58.3273 147.491 57.9636 147.2 57.5273 146.982C57.0909 146.764 56.5818 146.836 56.1455 147.054C55.8545 147.345 55.4909 147.782 55.2727 148.364Z" fill="#FFC700"/>
<path d="M43.0545 150.836L43.4182 150.909C44.2182 151.054 44.9454 151.054 45.6727 150.836C46.4 150.618 46.9818 150.182 47.4182 149.527L47.3454 149.454C46.9818 149.818 46.5454 150.036 46.0364 150.036C45.5273 150.109 45.1636 150.036 44.8 149.818C44.3636 149.527 44.0727 149.236 43.8545 148.8C43.7091 148.436 43.6364 147.927 43.7091 147.491H43.6364C43.2727 147.782 42.8364 147.927 42.3273 147.927C41.8182 147.927 41.3091 147.854 40.8727 147.564C40.3636 147.273 40 146.909 39.7818 146.327C39.4909 145.818 39.4182 145.236 39.4909 144.509C39.5636 143.854 39.7818 143.2 40.1454 142.473C40.7273 141.454 41.3818 140.727 42.1818 140.145C42.9818 139.564 43.7818 139.2 44.5818 139.054L45.3091 140.073C44.5091 140.364 43.8545 140.727 43.2727 141.164C42.6909 141.6 42.1091 142.254 41.6727 143.127C41.2364 143.927 40.9454 144.654 41.0182 145.236C41.0909 145.818 41.2364 146.254 41.6727 146.473C42.0364 146.691 42.4 146.691 42.8364 146.545C43.2727 146.4 43.5636 146.036 43.8545 145.454L45.4545 142.764L46.8364 143.564L45.2364 146.254C44.9454 146.764 44.8 147.273 44.8727 147.709C44.8727 148.145 45.0909 148.436 45.4545 148.654C45.8909 148.873 46.3273 148.873 46.8364 148.582C47.3454 148.291 47.8545 147.782 48.2909 146.982C48.8 146.109 49.0909 145.309 49.1636 144.582C49.2363 143.854 49.2364 143.054 49.0909 142.254L50.3273 142.4C50.6182 143.345 50.6909 144.291 50.5454 145.236C50.4 146.182 50.0363 147.2 49.5273 148.145C48.7273 149.527 47.9273 150.545 47.2 151.2C46.0364 152.145 44.6545 152.436 43.0545 152.218L40.5818 151.854C40.0727 151.782 39.5636 151.782 39.0545 151.782L39.1273 150.4C39.6364 150.327 40.2909 150.327 41.1636 150.473C41.6727 150.618 42.2545 150.691 43.0545 150.836Z" fill="#FFC700"/>
<path d="M39.2727 132.291C38.7636 131.854 38.2546 131.782 37.7455 131.927C37.2364 132.073 36.7273 132.436 36.2182 133.091L32.6546 137.309C32.2182 137.818 32 138.327 32 138.836C32 139.345 32.2182 139.709 32.6546 140.073C33.0182 140.436 33.4546 140.509 33.8909 140.436C34.3273 140.364 34.7636 140.073 35.1273 139.636C35.2727 139.418 35.4182 139.2 35.5637 138.909L36.8727 139.636C36.8 139.854 36.7273 140.073 36.6546 140.291C36.5818 140.509 36.4364 140.654 36.2909 140.873C36 141.236 35.5637 141.527 35.0546 141.745C34.5455 141.891 34.0364 141.964 33.5273 141.891C32.9455 141.818 32.4364 141.527 31.8546 141.091C31.0546 140.436 30.6182 139.709 30.5455 138.836C30.4727 138.036 30.6909 137.236 31.3455 136.436L35.0546 131.927C35.7818 131.054 36.5818 130.545 37.4546 130.4C38.3273 130.254 39.2 130.618 40.0727 131.345C40.9455 132.073 41.3818 132.873 41.4546 133.745C41.5273 134.618 41.2364 135.491 40.5091 136.291C40.2182 136.654 39.9273 136.945 39.5637 137.164C39.2727 137.382 38.9818 137.527 38.6909 137.6L37.9637 136.291C38.2546 136.145 38.4727 136 38.6182 135.854C38.7636 135.709 38.9818 135.564 39.1273 135.345C39.5636 134.836 39.7818 134.254 39.8546 133.745C39.9273 133.164 39.7091 132.654 39.2727 132.291Z" fill="#FFC700"/>
<path d="M32.9454 124.291C33.4545 124.873 33.7454 125.455 33.8909 126.109C34.0364 126.764 33.9636 127.345 33.7454 127.927C33.5273 128.509 33.1636 129.018 32.6545 129.527C32.0727 130.036 31.4182 130.327 30.7636 130.4L30.1818 128.945C30.4727 128.873 30.6909 128.727 30.9091 128.655C31.1273 128.509 31.2727 128.436 31.4909 128.218C32 127.782 32.2909 127.273 32.4364 126.691C32.5091 126.109 32.3636 125.6 32 125.164C31.5636 124.655 31.0545 124.509 30.5454 124.509C29.9636 124.582 29.3818 124.873 28.8727 125.382L24.3636 129.309C23.9273 129.673 23.6364 130.036 23.5636 130.327C23.4909 130.618 23.5636 130.909 23.8545 131.2C24.3636 131.709 24.9454 131.709 25.6 131.127L26.9818 129.891L28 131.055L26.6182 132.291C25.9636 132.873 25.8182 133.382 26.2545 133.818C26.3273 133.891 26.4 133.964 26.4727 134.036C26.5454 134.109 26.6182 134.109 26.6182 134.182C26.7636 134.255 26.8364 134.327 26.9091 134.4C27.0545 134.545 27.2 134.764 27.2727 135.127L26.1818 135.782C26.1091 135.636 25.9636 135.418 25.8182 135.273C25.7454 135.2 25.6727 135.055 25.5273 134.982C25.3818 134.909 25.3091 134.764 25.1636 134.618C24.6545 134.036 24.5818 133.382 25.0182 132.655V132.582C24.6545 132.727 24.2182 132.727 23.7818 132.582C23.3454 132.436 23.0545 132.218 22.7636 131.855C22.1818 131.2 21.9636 130.545 22.0364 129.964C22.1091 129.382 22.5454 128.727 23.2 128.145L27.7818 124.073C28.6545 123.273 29.5273 122.909 30.4727 122.909C31.3454 122.982 32.2182 123.418 32.9454 124.291Z" fill="#FFC700"/>
<path d="M14.8364 112.509C13.9636 113.018 13.4545 113.454 13.1636 113.891C12.8727 114.327 12.8727 114.764 13.0909 115.2C13.3091 115.564 13.6 115.782 14.0364 115.854C14.4727 115.927 14.9818 115.782 15.4909 115.491L18.1091 114.036L18.9091 115.418L16.2909 116.873C15.1273 117.527 14.7636 118.254 15.2727 119.054C15.4909 119.491 15.8545 119.709 16.2182 119.709C16.6545 119.709 17.0909 119.564 17.6727 119.273L20.2909 117.818L21.0909 119.2L18.4727 120.654C17.9636 120.945 17.6 121.309 17.3818 121.673C17.1636 122.036 17.1636 122.4 17.3818 122.764C17.6 123.2 18.0364 123.418 18.6182 123.418C19.2 123.418 19.9273 123.2 20.7273 122.764C21.5273 122.327 22.1091 121.745 22.4727 121.018C22.8364 120.291 23.0545 119.564 23.0545 118.764C23.1273 117.964 23.0545 117.236 22.9091 116.582C22.6182 115.491 22.4727 114.4 22.5455 113.382C22.5455 112.364 22.8364 111.491 23.3455 110.836L24.4364 111.709C24.1454 112.218 23.9273 112.8 23.9273 113.454C23.9273 114.109 23.9273 114.764 24.1455 115.345C24.2909 115.927 24.5091 116.509 24.8 116.945C25.2364 117.673 25.6727 118.182 26.2545 118.473L25.8182 119.709C25.5273 119.564 25.3091 119.418 25.0909 119.273C24.9455 119.127 24.7273 118.909 24.5818 118.691C24.5091 118.545 24.4364 118.473 24.4364 118.327C24.4364 118.182 24.3636 118.109 24.3636 117.964H24.2909C24.4364 119.127 24.2909 120.364 23.8545 121.527C23.4909 122.691 22.6182 123.636 21.4545 124.364C20.8 124.727 20.0727 124.945 19.4182 125.018C18.7636 125.091 18.1818 125.018 17.6727 124.727C17.1636 124.509 16.8 124.145 16.5091 123.636C16.2182 123.2 16.1455 122.691 16.1455 122.182C16.1455 121.673 16.3636 121.236 16.6545 120.873V120.8C16.2182 120.873 15.7818 120.8 15.3455 120.582C14.9091 120.364 14.5455 120.073 14.3273 119.636C14.1091 119.2 13.9636 118.764 14.0364 118.254C14.1091 117.818 14.2545 117.382 14.5455 117.018V116.945C14.1091 117.018 13.6 116.945 13.1636 116.654C12.7273 116.364 12.3636 116 12.0727 115.564C11.7818 115.054 11.7091 114.545 11.7818 114.036C11.8545 113.454 12.0727 112.945 12.5091 112.436C12.8727 111.927 13.4545 111.491 14.1091 111.054C15.4909 110.254 16.8727 109.964 18.2545 110.109L18.4 111.491C17.8909 111.491 17.3091 111.564 16.8 111.636C16.0727 111.854 15.4909 112.145 14.8364 112.509Z" fill="#FFC700"/>
<path d="M7.63637 97.7455C8.14546 97.3092 8.72728 96.9455 9.52728 96.7274C10.6182 96.4365 11.6364 96.291 12.5818 96.4365C13.5273 96.5819 14.3273 96.8728 15.0546 97.3092L14.9091 98.5455C14.1818 98.2546 13.3818 98.0365 12.6546 97.891C11.9273 97.8183 11.0546 97.891 10.1091 98.1819C9.23637 98.4728 8.58183 98.7637 8.14546 99.2001C7.78183 99.6364 7.63637 100.073 7.78183 100.509C7.92728 100.946 8.14546 101.236 8.5091 101.382C8.87273 101.527 9.38183 101.527 9.96364 101.309L13.0909 100.436L13.5273 101.964L10.4 102.836C9.81819 102.982 9.38183 103.273 9.16364 103.564C8.94546 103.855 8.87273 104.218 9.01819 104.655C9.16364 105.091 9.45455 105.382 10.0364 105.6C10.6182 105.746 11.3455 105.746 12.2182 105.455C13.1636 105.164 13.9636 104.8 14.5455 104.364C15.1273 103.927 15.6364 103.346 16.0727 102.618L16.8727 103.636C16.5091 104.436 15.9273 105.091 15.2 105.746C14.4727 106.4 13.6 106.836 12.4364 107.127C11.7091 107.346 10.9818 107.418 10.3273 107.273C9.67273 107.127 9.09092 106.909 8.65455 106.546C8.21819 106.182 7.92728 105.746 7.78183 105.164C7.63637 104.655 7.63637 104.146 7.78183 103.709C7.92728 103.273 8.21819 102.836 8.58183 102.546V102.473C8.14546 102.4 7.7091 102.255 7.34546 101.891C6.98183 101.527 6.69092 101.164 6.54546 100.655C6.40001 100.073 6.40001 99.5637 6.54546 98.9819C6.76364 98.691 7.12728 98.1819 7.63637 97.7455Z" fill="#FFC700"/>
</svg>
